<mxfile host="app.diagrams.net" agent="Mozilla/5.0 (Windows NT 10.0; Win64; x64) AppleWebKit/537.36 (KHTML, like Gecko) Chrome/126.0.0.0 Safari/537.36" version="24.7.4">
  <diagram id="C5RBs43oDa-KdzZeNtuy" name="Page-1">
    <mxGraphModel dx="2261" dy="746" grid="1" gridSize="10" guides="1" tooltips="1" connect="1" arrows="1" fold="1" page="1" pageScale="1" pageWidth="827" pageHeight="1169" math="0" shadow="0">
      <root>
        <mxCell id="WIyWlLk6GJQsqaUBKTNV-0" />
        <mxCell id="WIyWlLk6GJQsqaUBKTNV-1" parent="WIyWlLk6GJQsqaUBKTNV-0" />
        <mxCell id="S2Nrq49oydR9HCXysu24-0" value="Fragrance" style="rounded=1;whiteSpace=wrap;html=1;" vertex="1" parent="WIyWlLk6GJQsqaUBKTNV-1">
          <mxGeometry x="440" y="200" width="120" height="60" as="geometry" />
        </mxCell>
        <mxCell id="S2Nrq49oydR9HCXysu24-3" value="" style="edgeStyle=orthogonalEdgeStyle;rounded=0;orthogonalLoop=1;jettySize=auto;html=1;" edge="1" parent="WIyWlLk6GJQsqaUBKTNV-1" source="S2Nrq49oydR9HCXysu24-1" target="S2Nrq49oydR9HCXysu24-2">
          <mxGeometry relative="1" as="geometry" />
        </mxCell>
        <mxCell id="S2Nrq49oydR9HCXysu24-5" value="" style="edgeStyle=orthogonalEdgeStyle;rounded=0;orthogonalLoop=1;jettySize=auto;html=1;" edge="1" parent="WIyWlLk6GJQsqaUBKTNV-1" source="S2Nrq49oydR9HCXysu24-1" target="S2Nrq49oydR9HCXysu24-4">
          <mxGeometry relative="1" as="geometry" />
        </mxCell>
        <mxCell id="S2Nrq49oydR9HCXysu24-7" value="" style="edgeStyle=orthogonalEdgeStyle;rounded=0;orthogonalLoop=1;jettySize=auto;html=1;" edge="1" parent="WIyWlLk6GJQsqaUBKTNV-1" source="S2Nrq49oydR9HCXysu24-1" target="S2Nrq49oydR9HCXysu24-6">
          <mxGeometry relative="1" as="geometry" />
        </mxCell>
        <mxCell id="S2Nrq49oydR9HCXysu24-1" value="Sources" style="rounded=1;whiteSpace=wrap;html=1;" vertex="1" parent="WIyWlLk6GJQsqaUBKTNV-1">
          <mxGeometry x="40" y="240" width="120" height="60" as="geometry" />
        </mxCell>
        <mxCell id="S2Nrq49oydR9HCXysu24-2" value="Forums" style="whiteSpace=wrap;html=1;rounded=1;" vertex="1" parent="WIyWlLk6GJQsqaUBKTNV-1">
          <mxGeometry x="-230" y="290" width="120" height="60" as="geometry" />
        </mxCell>
        <mxCell id="S2Nrq49oydR9HCXysu24-4" value="Social Networks" style="whiteSpace=wrap;html=1;rounded=1;" vertex="1" parent="WIyWlLk6GJQsqaUBKTNV-1">
          <mxGeometry x="-160" y="120" width="120" height="60" as="geometry" />
        </mxCell>
        <mxCell id="S2Nrq49oydR9HCXysu24-6" value="Content Platforms" style="whiteSpace=wrap;html=1;rounded=1;" vertex="1" parent="WIyWlLk6GJQsqaUBKTNV-1">
          <mxGeometry x="-100" y="420" width="120" height="60" as="geometry" />
        </mxCell>
        <mxCell id="S2Nrq49oydR9HCXysu24-10" value="" style="edgeStyle=orthogonalEdgeStyle;rounded=0;orthogonalLoop=1;jettySize=auto;html=1;" edge="1" parent="WIyWlLk6GJQsqaUBKTNV-1" source="S2Nrq49oydR9HCXysu24-8" target="S2Nrq49oydR9HCXysu24-9">
          <mxGeometry relative="1" as="geometry" />
        </mxCell>
        <mxCell id="S2Nrq49oydR9HCXysu24-8" value="Pikabu questioning communities" style="rounded=1;whiteSpace=wrap;html=1;" vertex="1" parent="WIyWlLk6GJQsqaUBKTNV-1">
          <mxGeometry x="-360" y="1000" width="120" height="60" as="geometry" />
        </mxCell>
        <mxCell id="S2Nrq49oydR9HCXysu24-12" value="" style="edgeStyle=orthogonalEdgeStyle;rounded=0;orthogonalLoop=1;jettySize=auto;html=1;" edge="1" parent="WIyWlLk6GJQsqaUBKTNV-1" source="S2Nrq49oydR9HCXysu24-9" target="S2Nrq49oydR9HCXysu24-11">
          <mxGeometry relative="1" as="geometry" />
        </mxCell>
        <mxCell id="S2Nrq49oydR9HCXysu24-9" value="" style="whiteSpace=wrap;html=1;rounded=1;" vertex="1" parent="WIyWlLk6GJQsqaUBKTNV-1">
          <mxGeometry x="-160" y="1000" width="120" height="60" as="geometry" />
        </mxCell>
        <mxCell id="S2Nrq49oydR9HCXysu24-11" value="" style="whiteSpace=wrap;html=1;rounded=1;" vertex="1" parent="WIyWlLk6GJQsqaUBKTNV-1">
          <mxGeometry x="40" y="1000" width="120" height="60" as="geometry" />
        </mxCell>
      </root>
    </mxGraphModel>
  </diagram>
</mxfile>
